<svg viewBox="0 0 800 1000" xmlns="http://www.w3.org/2000/svg" preserveAspectRatio="xMidYMid slice">
    <defs>
        <linearGradient id="grad1" x1="0%" y1="0%" x2="100%" y2="100%">
            <stop offset="0%" style="stop-color:hsl(204, 89%, 51%);stop-opacity:0.8" />
            <stop offset="50%" style="stop-color:hsl(206, 100%, 60%);stop-opacity:0.7" />
            <stop offset="100%" style="stop-color:hsl(174, 100%, 45%);stop-opacity:0.8" />
        </linearGradient>
        <pattern id="pattern" x="0" y="0" width="100" height="100" patternUnits="userSpaceOnUse">
            <circle cx="25" cy="25" r="2" fill="white" opacity="0.2" />
            <circle cx="75" cy="75" r="2" fill="white" opacity="0.2" />
            <circle cx="25" cy="75" r="2" fill="white" opacity="0.15" />
            <circle cx="75" cy="25" r="2" fill="white" opacity="0.15" />
        </pattern>
    </defs>
    <rect width="800" height="1000" fill="url(#grad1)" />
    <rect width="800" height="1000" fill="url(#pattern)" />
    <g transform="translate(400, 500)">
        <circle cx="0" cy="0" r="60" fill="white" opacity="0.15" />
        <path
            d="M -30 -10 Q -30 -30 -10 -30 L 10 -30 Q 30 -30 30 -10 L 30 20 Q 30 30 20 35 L -20 35 Q -30 30 -30 20 Z"
            fill="white" opacity="0.3" />
        <circle cx="0" cy="-15" r="18" fill="white" opacity="0.3" />
    </g>
    <text x="400" y="650" font-family="system-ui, -apple-system, sans-serif" font-size="24"
        fill="white" opacity="0.9" text-anchor="middle" font-weight="600">Open CRM</text>
    <text x="400" y="680" font-family="system-ui, -apple-system, sans-serif" font-size="16"
        fill="white" opacity="0.7" text-anchor="middle">Quản lý khách hàng chuyên nghiệp</text>
</svg>