<svg viewBox="0 0 800 1000" xmlns="http://www.w3.org/2000/svg" preserveAspectRatio="xMidYMid slice">
    <defs>
        <linearGradient id="grad2" x1="0%" y1="0%" x2="100%" y2="100%">
            <stop offset="0%" style="stop-color:hsl(210, 70%, 85%);stop-opacity:0.9" />
            <stop offset="50%" style="stop-color:hsl(204, 89%, 51%);stop-opacity:0.8" />
            <stop offset="100%" style="stop-color:hsl(204, 89%, 51%);stop-opacity:0.9" />
        </linearGradient>
        <pattern id="dots" x="0" y="0" width="50" height="50" patternUnits="userSpaceOnUse">
            <circle cx="25" cy="25" r="1.5" fill="white" opacity="0.3" />
        </pattern>
    </defs>
    <rect width="800" height="1000" fill="url(#grad2)" />
    <rect width="800" height="1000" fill="url(#dots)" />
    <g transform="translate(400, 500)">
        <circle cx="0" cy="0" r="80" fill="white" opacity="0.1" />
        <circle cx="0" cy="0" r="60" fill="white" opacity="0.15" />
        <path
            d="M -25 10 L 25 10 L 25 30 Q 25 40 15 40 L -15 40 Q -25 40 -25 30 Z M -20 0 Q -20 -20 0 -20 Q 20 -20 20 0 Q 20 10 10 10 L -10 10 Q -20 10 -20 0"
            fill="white" opacity="0.4" stroke="white" stroke-width="2" stroke-opacity="0.2" />
    </g>
    <text x="400" y="650" font-family="system-ui, -apple-system, sans-serif" font-size="28"
        fill="white" opacity="0.95" text-anchor="middle" font-weight="700">Chào mừng trở lại</text>
    <text x="400" y="685" font-family="system-ui, -apple-system, sans-serif" font-size="16"
        fill="white" opacity="0.75" text-anchor="middle">Open CRM - Hệ thống quản lý khách hàng</text>
</svg>